<svg width="65" height="64" viewBox="0 0 65 64" fill="none" xmlns="http://www.w3.org/2000/svg">
<path d="M32.5 64C50.1731 64 64.5 49.6731 64.5 32C64.5 14.3269 50.1731 0 32.5 0C14.8269 0 0.5 14.3269 0.5 32C0.5 49.6731 14.8269 64 32.5 64Z" fill="white"/>
<path d="M32.5 63.5C49.897 63.5 64 49.397 64 32C64 14.603 49.897 0.5 32.5 0.5C15.103 0.5 1 14.603 1 32C1 49.397 15.103 63.5 32.5 63.5Z" stroke="#D5D9EC"/>
<path d="M32.5 55C45.2025 55 55.5 44.7025 55.5 32C55.5 19.2975 45.2025 9 32.5 9C19.7975 9 9.5 19.2975 9.5 32C9.5 44.7025 19.7975 55 32.5 55Z" fill="#2533CC"/>
<path d="M47.2948 35.085L47.2808 35.071V35.042L47.2668 35.028V34.999L47.2378 34.97L47.2088 34.927V34.897L47.1948 34.883L47.1808 34.854H47.1668V34.84L47.1528 34.826L47.0658 34.739H47.0518V34.725H47.0378L46.9948 34.682L46.9658 34.668L46.9518 34.654C46.8257 34.5772 46.6805 34.5374 46.5328 34.539H45.0748V31.058C45.0751 30.9537 45.0547 30.8503 45.0149 30.7539C44.9751 30.6574 44.9167 30.5698 44.8429 30.496C44.7691 30.4222 44.6814 30.3637 44.585 30.3239C44.4885 30.2841 44.3852 30.2638 44.2808 30.264H42.5488V28.547C42.7428 28.5159 42.9185 28.4145 43.0425 28.2621C43.1665 28.1098 43.2301 27.9171 43.2212 27.7209C43.2123 27.5247 43.1315 27.3386 42.9942 27.1981C42.857 27.0576 42.6728 26.9725 42.4768 26.959H22.2948C22.0989 26.9725 21.9147 27.0576 21.7774 27.1981C21.6402 27.3386 21.5594 27.5247 21.5505 27.7209C21.5416 27.9171 21.6052 28.1098 21.7292 28.2621C21.8532 28.4145 22.0289 28.5159 22.2228 28.547V30.265H20.4948C20.3905 30.2648 20.2871 30.2851 20.1907 30.3249C20.0942 30.3647 20.0066 30.4232 19.9328 30.497C19.859 30.5708 19.8005 30.6584 19.7607 30.7549C19.7209 30.8513 19.7006 30.9547 19.7008 31.059V34.537H18.2428C18.0952 34.5354 17.95 34.5752 17.8238 34.652L17.7948 34.681L17.7368 34.724H17.7228V34.738H17.7088L17.6508 34.796L17.6368 34.825H17.6228V34.839L17.6088 34.853L17.5798 34.882L17.5658 34.896V34.925L17.5368 34.968L17.5228 34.982V34.996L17.5088 35.025V35.039L17.4948 35.068V35.082C17.4654 35.1603 17.4508 35.2434 17.4518 35.327C17.4493 35.3851 17.454 35.4432 17.4658 35.5V35.529C17.4838 35.5846 17.5079 35.6379 17.5378 35.688L17.5668 35.746V35.76L17.5808 35.774L17.6098 35.803V35.817L24.2788 45.561V45.575L24.3368 45.662L27.1808 49.805L25.9228 56.713L27.8288 57.272L28.7398 50.354H36.0398L37.1678 57.554L39.0308 57.054L37.6128 49.802L47.1688 35.814L47.1828 35.8L47.1968 35.771L47.2108 35.757V35.747L47.2398 35.689C47.2724 35.6404 47.2967 35.5866 47.3118 35.53V35.501C47.3237 35.4442 47.3284 35.3861 47.3258 35.328C47.3304 35.2458 47.3199 35.1635 47.2948 35.085ZM38.8088 28.547H40.9598V30.265H38.8088V28.547ZM35.0558 28.547H37.2208V30.265H35.0558V28.547ZM31.3028 28.547H33.4678V30.265H31.3028V28.547ZM27.5638 28.547H29.7148V30.265H27.5638V28.547ZM23.8108 28.547H25.9758V30.265H23.8108V28.547ZM21.2848 31.847H43.4848V34.537H21.2848V31.847ZM40.2528 36.12L38.7808 38.098L37.3088 36.12H40.2528ZM34.1038 36.12L32.5738 38.184L31.0578 36.12H34.1038ZM27.6948 36.12L26.1068 38.256L24.5338 36.12H27.6948ZM23.5518 41.706L19.7408 36.12H22.5558L25.1248 39.584L23.5518 41.706ZM24.5048 43.092L26.1048 40.912L26.4228 41.331C26.4845 41.4139 26.5619 41.4838 26.6506 41.5367C26.7393 41.5895 26.8376 41.6244 26.9398 41.6391C27.042 41.6539 27.1461 41.6483 27.2462 41.6227C27.3462 41.5972 27.4403 41.5521 27.5228 41.49C27.6079 41.4303 27.6801 41.3541 27.735 41.2659C27.79 41.1778 27.8267 41.0794 27.8428 40.9767C27.8589 40.8741 27.8542 40.7692 27.829 40.6684C27.8038 40.5676 27.7585 40.473 27.6958 40.39L27.1038 39.582L29.3698 36.507L31.5928 39.507L29.7018 42.062C29.5769 42.2311 29.5236 42.4425 29.5533 42.6506C29.5831 42.8587 29.6936 43.0467 29.8608 43.174C29.9449 43.2366 30.0405 43.2817 30.1422 43.3069C30.2439 43.3321 30.3496 43.3367 30.4531 43.3206C30.5566 43.3045 30.6559 43.268 30.7451 43.2131C30.8343 43.1582 30.9118 43.0861 30.9728 43.001L32.5728 40.836L35.1998 44.373H25.3688L24.5048 43.092ZM36.3848 48.765H28.3848L26.4648 45.965H36.6148C36.7272 45.9874 36.8431 45.9862 36.955 45.9614C37.0669 45.9366 37.1724 45.8888 37.2648 45.821C37.3493 45.7579 37.4197 45.6777 37.4713 45.5858C37.523 45.4938 37.5549 45.392 37.5648 45.287H37.5788V45.172C37.5787 45.0607 37.5555 44.9507 37.5108 44.8488C37.466 44.7469 37.4007 44.6554 37.3188 44.58L33.5658 39.513L35.7018 36.626L37.7368 39.354L37.7948 39.426L37.1738 40.263C37.0489 40.4321 36.9956 40.6435 37.0253 40.8516C37.0551 41.0597 37.1656 41.2477 37.3328 41.375C37.4169 41.4376 37.5125 41.4827 37.6142 41.5079C37.7159 41.5331 37.8216 41.5377 37.9251 41.5216C38.0286 41.5055 38.1279 41.469 38.2171 41.4141C38.3063 41.3592 38.3838 41.2871 38.4448 41.202L42.2128 36.121H45.0278L36.3848 48.765ZM39.5028 24.355H38.5948C38.425 22.9785 37.8 21.6983 36.8193 20.7176C35.8386 19.7368 34.5583 19.1119 33.1818 18.942V4.00103C33.1818 3.79045 33.0982 3.58849 32.9493 3.43959C32.8004 3.29068 32.5984 3.20703 32.3878 3.20703C32.1773 3.20703 31.9753 3.29068 31.8264 3.43959C31.6775 3.58849 31.5938 3.79045 31.5938 4.00103V18.947C30.244 19.1199 28.9872 19.728 28.0138 20.679L27.9708 20.722C26.9801 21.6975 26.3491 22.9799 26.1808 24.36H25.2718C25.1675 24.3598 25.0641 24.3801 24.9677 24.4199C24.8712 24.4597 24.7836 24.5182 24.7098 24.592C24.636 24.6658 24.5775 24.7534 24.5377 24.8499C24.4979 24.9463 24.4776 25.0497 24.4778 25.154C24.4794 25.3641 24.5636 25.5652 24.7121 25.7137C24.8607 25.8623 25.0617 25.9465 25.2718 25.948H39.5048C39.7149 25.9465 39.916 25.8623 40.0645 25.7137C40.2131 25.5652 40.2973 25.3641 40.2988 25.154C40.2991 25.0494 40.2787 24.9458 40.2387 24.8492C40.1987 24.7525 40.1399 24.6648 40.0658 24.5909C39.9917 24.5171 39.9037 24.4587 39.8069 24.4191C39.7101 24.3794 39.6064 24.3594 39.5018 24.36L39.5028 24.355ZM27.7808 24.355C27.9453 23.4038 28.3993 22.5266 29.0808 21.843L29.1238 21.8C30.0045 20.9409 31.1887 20.4639 32.419 20.4727C33.6493 20.4815 34.8265 20.9754 35.6948 21.847C36.3764 22.5306 36.8304 23.4078 36.9948 24.359L27.7808 24.355Z" fill="white"/>
</svg>
